<svg xmlns="http://www.w3.org/2000/svg" width="259.288" height="39" viewBox="0 0 259.288 39"><g transform="translate(-140 -31)"><path d="M-102.532-19.215h6.51V0h6.86V-19.215h6.58v-5.46h-19.95Zm29.365,10.64c0-3.01,1.575-3.92,4.41-3.92h1.925V-19.81a7.788,7.788,0,0,0-6.335,3.64v-3.465h-6.86V0h6.86Zm7.665-1.26c0,6.265,3.71,10.08,8.365,10.08A6.371,6.371,0,0,0-51.362-2.73V0h6.86V-19.635h-6.86v2.73a6.331,6.331,0,0,0-5.775-2.975C-61.792-19.88-65.5-16.1-65.5-9.835Zm14.14,0c0,2.66-1.645,4.1-3.57,4.1-1.96,0-3.57-1.47-3.57-4.1,0-2.66,1.61-4.06,3.57-4.06C-53.007-13.9-51.362-12.46-51.362-9.835Zm9.135-9.8L-35.472,0h8.54l6.755-19.635h-7.315l-3.675,13.16-3.745-13.16Zm33.18,5.18a2.694,2.694,0,0,1,2.94,2.695h-6.055A2.962,2.962,0,0,1-9.047-14.455ZM.473-6.79H-6.842a2.561,2.561,0,0,1-2.45,1.54c-1.54,0-2.765-.91-2.905-3.185H.788a12.435,12.435,0,0,0,.1-1.61c0-6.09-4.1-9.835-9.905-9.835-5.88,0-9.975,3.815-9.975,10.045,0,6.265,4.165,10.08,9.975,10.08C-4.112.245-.437-2.765.473-6.79ZM3.693,0h6.86V-25.9H3.693Zm9.66-9.835c0,6.265,3.71,10.08,8.365,10.08A6.371,6.371,0,0,0,27.493-2.73V0h6.86V-19.635h-6.86v2.73a6.331,6.331,0,0,0-5.775-2.975C17.063-19.88,13.353-16.1,13.353-9.835Zm14.14,0c0,2.66-1.645,4.1-3.57,4.1-1.96,0-3.57-1.47-3.57-4.1,0-2.66,1.61-4.06,3.57-4.06C25.848-13.9,27.493-12.46,27.493-9.835ZM51.643,0H58.5V-11.445c0-5.145-2.835-8.365-7.385-8.365a7.085,7.085,0,0,0-5.985,2.975v-2.8h-6.86V0h6.86V-10.535c0-2.275,1.26-3.6,3.29-3.6,1.96,0,3.22,1.33,3.22,3.6Zm9.52-9.835c0,6.265,4.095,10.08,9.94,10.08a9.251,9.251,0,0,0,9.59-7.77h-7.28A2.407,2.407,0,0,1,70.963-5.6c-1.68,0-2.8-1.4-2.8-4.235,0-2.8,1.12-4.2,2.8-4.2a2.441,2.441,0,0,1,2.45,1.925h7.28c-.98-4.935-4.62-7.77-9.59-7.77C65.257-19.88,61.163-16.065,61.163-9.835Zm31.185-4.62a2.694,2.694,0,0,1,2.94,2.695H89.232A2.962,2.962,0,0,1,92.347-14.455Zm9.52,7.665H94.552A2.561,2.561,0,0,1,92.1-5.25c-1.54,0-2.765-.91-2.905-3.185h12.985a12.434,12.434,0,0,0,.105-1.61c0-6.09-4.1-9.835-9.9-9.835-5.88,0-9.975,3.815-9.975,10.045,0,6.265,4.165,10.08,9.975,10.08C97.283.245,100.957-2.765,101.868-6.79Z" transform="translate(297 63)" fill="#42495b"/><g transform="translate(-631 -3722)"><g transform="translate(1)"><circle cx="5.5" cy="5.5" r="5.5" transform="translate(778 3767)" fill="#42495b"/><circle cx="5.5" cy="5.5" r="5.5" transform="translate(793 3767)" fill="#42495b"/></g><circle cx="5.5" cy="5.5" r="5.5" transform="translate(786 3753)" fill="#42495b"/><circle cx="5.5" cy="5.5" r="5.5" transform="translate(771 3781)" fill="#42495b"/><circle cx="5.5" cy="5.5" r="5.5" transform="translate(786 3781)" fill="#42495b"/><circle cx="5.5" cy="5.5" r="5.5" transform="translate(801 3781)" fill="#42495b"/></g></g></svg>