<svg xmlns="http://www.w3.org/2000/svg" width="29.471" height="26.2" viewBox="0 0 29.471 26.2"><g transform="translate(0.009 0.723)"><path d="M26.085,4.048l-4.871,3.9a2.487,2.487,0,0,1,.036.362,2.453,2.453,0,1,1-4.906,0,2.425,2.425,0,0,1,.036-.363l-4.871-3.9a2.305,2.305,0,0,1-1.516.081L4.807,9.315A2.448,2.448,0,1,1,2.445,7.49a2.446,2.446,0,0,1,.628.091L8.259,2.394a2.446,2.446,0,0,1-.091-.628,2.453,2.453,0,1,1,4.906,0,2.424,2.424,0,0,1-.036.363l4.871,3.9a2.376,2.376,0,0,1,1.776,0l4.872-3.9a2.486,2.486,0,0,1-.036-.362,2.471,2.471,0,1,1,1.565,2.281Z" transform="translate(0)" fill="#42495b" opacity="0.4"/><path d="M20.44,198.541H17.17a.818.818,0,0,0-.818.818v8.176a.818.818,0,0,0,.818.818h3.27a.818.818,0,0,0,.818-.818v-8.176A.818.818,0,0,0,20.44,198.541ZM28.616,192h-3.27a.818.818,0,0,0-.818.818v14.717a.818.818,0,0,0,.818.818h3.27a.818.818,0,0,0,.818-.818V192.818A.818.818,0,0,0,28.616,192Zm-16.352,0H8.994a.818.818,0,0,0-.818.818v14.717a.818.818,0,0,0,.818.818h3.27a.818.818,0,0,0,.818-.818V192.818A.818.818,0,0,0,12.264,192Zm-8.176,8.176H.818a.818.818,0,0,0-.818.818v6.541a.818.818,0,0,0,.818.818h3.27a.818.818,0,0,0,.818-.818v-6.541A.818.818,0,0,0,4.088,200.176Z" transform="translate(-0.008 -182.875)" fill="#42495b"/></g></svg>