<svg xmlns="http://www.w3.org/2000/svg" width="33.227" height="23.259" viewBox="0 0 33.227 23.259"><g transform="translate(0 -32)"><path d="M4.984,102.645a3.323,3.323,0,1,0-3.323-3.323,3.323,3.323,0,0,0,3.323,3.323ZM29.9,104.307H26.582a3.313,3.313,0,0,0-2.341.966,7.594,7.594,0,0,1,3.9,5.68h3.427a1.661,1.661,0,0,0,1.661-1.661V107.63A3.326,3.326,0,0,0,29.9,104.307Zm-26.582,0A3.326,3.326,0,0,0,0,107.63v1.661a1.661,1.661,0,0,0,1.661,1.661H5.083a7.613,7.613,0,0,1,3.9-5.68,3.313,3.313,0,0,0-2.341-.966Zm24.921-1.661a3.323,3.323,0,1,0-3.323-3.323A3.323,3.323,0,0,0,28.243,102.645Z" transform="translate(0 -60.677)" fill="#42495b" opacity="0.4"/><path d="M141.956,45.291h-.431a8.028,8.028,0,0,1-7.113,0h-.431A5.983,5.983,0,0,0,128,51.272v1.5a2.492,2.492,0,0,0,2.492,2.492h14.952a2.492,2.492,0,0,0,2.492-2.492v-1.5a5.982,5.982,0,0,0-5.981-5.981Zm-3.987-1.661a5.812,5.812,0,1,0-4.113-1.7,5.815,5.815,0,0,0,4.113,1.7Z" transform="translate(-121.355)" fill="#42495b"/></g></svg>