<svg xmlns="http://www.w3.org/2000/svg" width="29.471" height="22.922" viewBox="0 0 29.471 22.922"><g transform="translate(0 -32)"><path d="M14.735,32A14.735,14.735,0,0,0,2,54.144a1.619,1.619,0,0,0,1.4.778H26.068a1.619,1.619,0,0,0,1.4-.778A14.735,14.735,0,0,0,14.735,32Zm0,3.275A1.637,1.637,0,1,1,13.1,36.912,1.637,1.637,0,0,1,14.735,35.275ZM4.912,50.01a1.637,1.637,0,1,1,1.637-1.637A1.637,1.637,0,0,1,4.912,50.01Zm2.456-8.186A1.637,1.637,0,1,1,9,40.186,1.637,1.637,0,0,1,7.367,41.824Zm10.188,9.824h-5.64a3.24,3.24,0,0,1-.454-1.637,3.275,3.275,0,0,1,3.275-3.275,3.23,3.23,0,0,1,.831.12l5.554-7.406a1.228,1.228,0,1,1,1.965,1.474l-5.554,7.406A3.186,3.186,0,0,1,17.555,51.647Zm7-1.637A1.637,1.637,0,1,1,26.2,48.373,1.637,1.637,0,0,1,24.559,50.01Z" fill="#42495b" opacity="0.4"/><path d="M227.275,175.764a3.23,3.23,0,0,1,.831.12l5.554-7.406a1.228,1.228,0,1,1,1.965,1.474l-5.554,7.406a3.186,3.186,0,0,1,.024,3.319h-5.64a3.24,3.24,0,0,1-.454-1.637A3.275,3.275,0,0,1,227.275,175.764Z" transform="translate(-212.539 -129.029)" fill="#42495b"/></g></svg>