<svg xmlns="http://www.w3.org/2000/svg" width="79.088" height="85.088" viewBox="0 0 79.088 85.088"><g transform="translate(-425 -1883)"><path d="M77.673,160H73.418A1.418,1.418,0,0,0,72,161.418v34.035a1.418,1.418,0,0,0,1.418,1.418h56.725a1.418,1.418,0,0,0,1.418-1.418V167.091a1.418,1.418,0,0,0-2.836,0v26.944H74.836v-31.2h2.836a1.418,1.418,0,1,0,0-2.836Zm0,0" transform="translate(359.763 1751.363)" fill="#42495b"/><path d="M227.345,162.836a1.418,1.418,0,0,0,0-2.836h-9.927a1.418,1.418,0,0,0,0,2.836Zm0,0" transform="translate(241.289 1751.363)" fill="#42495b"/><path d="M109.488,165.673a1.418,1.418,0,0,0-1.418,1.418v31.2a1.418,1.418,0,0,1-1.418,1.418h-62.4a1.418,1.418,0,0,1-1.418-1.418V161.418a1.418,1.418,0,0,0-2.836,0v36.871a4.255,4.255,0,0,0,4.254,4.254H64.108v5.673H55.6a4.254,4.254,0,1,0,0,8.509H95.307a1.418,1.418,0,1,0,0-2.836H55.6a1.418,1.418,0,1,1,0-2.836H95.307a1.418,1.418,0,1,0,0-2.836H86.8v-5.673h19.854a4.255,4.255,0,0,0,4.254-4.254v-31.2A1.418,1.418,0,0,0,109.488,165.673ZM83.962,208.216H66.944v-5.673H83.962Zm0,0" transform="translate(386.091 1751.363)" fill="#42495b"/><path d="M78,0H60.979a7.1,7.1,0,0,0-7.091,7.091v15.6a13.72,13.72,0,0,0,.142,2.836A7.1,7.1,0,0,0,60.979,31.2H78a7.1,7.1,0,0,0,7.091-7.091V7.091A7.1,7.1,0,0,0,78,0Zm4.254,24.108A4.255,4.255,0,0,1,78,28.363H60.979a4.255,4.255,0,0,1-4.254-4.254V7.091a4.255,4.255,0,0,1,4.254-4.254H78a4.255,4.255,0,0,1,4.254,4.254Zm0,0" transform="translate(419 1883)" fill="#42495b"/><path d="M91.474,32H73.77a1.77,1.77,0,1,0,0,3.541h17.7a1.77,1.77,0,1,0,0-3.541Zm0,0" transform="translate(382.462 1888.946)" fill="#42495b"/><path d="M41.77,67.541H55.933a1.77,1.77,0,1,0,0-3.541H41.77a1.77,1.77,0,1,0,0,3.541Zm0,0" transform="translate(407.381 1864.028)" fill="#42495b"/><path d="M97.7,96H81.77a1.77,1.77,0,1,0,0,3.541H97.7A1.77,1.77,0,1,0,97.7,96Zm0,0" transform="translate(376.232 1839.109)" fill="#42495b"/><path d="M43.541,96H41.77a1.77,1.77,0,1,0,0,3.541h1.77a1.77,1.77,0,1,0,0-3.541Zm0,0" transform="translate(407.381 1839.109)" fill="#42495b"/><path d="M141.311,64H137.77a1.77,1.77,0,1,0,0,3.541h3.541a1.77,1.77,0,1,0,0-3.541Zm0,0" transform="translate(332.625 1864.028)" fill="#42495b"/><path d="M17.184,1.992H4.492L4.22.6A.747.747,0,0,0,3.487,0H.374A.374.374,0,0,0,0,.374v.747a.374.374,0,0,0,.374.374h2.5L5.038,12.567A1.992,1.992,0,1,0,8.2,12.95h4.519a1.992,1.992,0,1,0,3.1-.44l.032-.148a.747.747,0,0,0-.73-.906H6.343L6.051,9.962h9.725a.747.747,0,0,0,.73-.588L17.914,2.9A.747.747,0,0,0,17.184,1.992ZM6.475,14.694a.747.747,0,1,1,.747-.747A.748.748,0,0,1,6.475,14.694Zm7.969,0a.747.747,0,1,1,.747-.747A.748.748,0,0,1,14.445,14.694Zm.73-6.226H5.759L4.784,3.487H16.257Z" transform="translate(479.02 1890.877)" fill="#42495b"/><path d="M28.522,32H2.6A2.6,2.6,0,0,0,0,34.593V53.612a2.6,2.6,0,0,0,2.6,2.593H28.522a2.6,2.6,0,0,0,2.6-2.593V34.593A2.6,2.6,0,0,0,28.522,32Zm-25.6,2.593H28.2a.325.325,0,0,1,.324.324v2.269H2.6V34.918A.325.325,0,0,1,2.923,34.593ZM28.2,53.612H2.923a.325.325,0,0,1-.324-.324V44.1H28.522v9.185A.325.325,0,0,1,28.2,53.612Zm-17.824-5.4V50.37a.65.65,0,0,1-.648.648H5.835a.65.65,0,0,1-.648-.648V48.209a.65.65,0,0,1,.648-.648h3.89A.65.65,0,0,1,10.374,48.209Zm10.374,0V50.37a.65.65,0,0,1-.648.648H12.751a.65.65,0,0,1-.648-.648V48.209a.65.65,0,0,1,.648-.648H20.1A.65.65,0,0,1,20.747,48.209Z" transform="translate(425 1853.048)" fill="#42495b"/></g></svg>