<svg xmlns="http://www.w3.org/2000/svg" width="93.5" height="91.073" viewBox="0 0 93.5 91.073"><g transform="translate(-920.576 -1397.825)"><g transform="translate(920.076 1399)"><g transform="translate(29.966 7.491)"><rect width="29.966" height="2.997" fill="#42495b"/></g><g transform="translate(19.478 29.966)"><path d="M158.688,186.22a5.25,5.25,0,0,0-5.244-5.244h-3V160h-3v20.976H143.7a5.236,5.236,0,0,0-3.658,8.99,5.182,5.182,0,0,0-.788,6.493,5.24,5.24,0,0,0-3.045,4.744,5.183,5.183,0,0,0,.526,2.247H124.976a13.478,13.478,0,0,0-5.8-11.073,9,9,0,0,0,5.8-8.4,1.5,1.5,0,0,0-1.5-1.5H111.491V167.491h-3v14.983A4.5,4.5,0,0,0,104,186.969v32.963h3V186.969a1.5,1.5,0,0,1,1.5-1.5h13.294a6,6,0,0,1-5.8,4.495h-4.495a1.5,1.5,0,1,0,0,3,10.5,10.5,0,0,1,10.488,10.488v1.5a1.5,1.5,0,0,0,1.5,1.5h8.767a5.183,5.183,0,0,0-.526,2.247,5.25,5.25,0,0,0,5.244,5.244v5.993h3v-5.993H146.7a5.25,5.25,0,0,0,5.244-5.244,5.18,5.18,0,0,0-.538-2.269,5.2,5.2,0,0,0,4.235-7.97,5.218,5.218,0,0,0,1.46-8.49A5.223,5.223,0,0,0,158.688,186.22ZM146.7,210.942h-9.739a2.247,2.247,0,1,1,0-4.495H146.7a2.247,2.247,0,1,1,0,4.495Zm4.495-7.492h-9.739a2.247,2.247,0,1,1,0-4.495H151.2a2.247,2.247,0,1,1,0,4.495Zm2.247-7.492H143.7a2.247,2.247,0,1,1,0-4.495h9.739a2.247,2.247,0,0,1,0,4.495Zm0-7.491H143.7a2.247,2.247,0,1,1,0-4.495h9.739a2.247,2.247,0,0,1,0,4.495Z" transform="translate(-104 -160)" fill="#42495b"/></g><g transform="translate(31.464 16.481)"><path d="M190.474,88h-17.98A4.5,4.5,0,0,0,168,92.495v17.98a4.5,4.5,0,0,0,4.495,4.495h17.98a4.5,4.5,0,0,0,4.495-4.495V92.495A4.5,4.5,0,0,0,190.474,88Zm1.5,22.474a1.5,1.5,0,0,1-1.5,1.5h-17.98a1.5,1.5,0,0,1-1.5-1.5V92.495a1.5,1.5,0,0,1,1.5-1.5h17.98a1.5,1.5,0,0,1,1.5,1.5Z" transform="translate(-168 -88)" fill="#42495b"/><path d="M28.577,14.781l.943-.544a.712.712,0,0,0,.331-.8,7.331,7.331,0,0,0-1.9-3.281.711.711,0,0,0-.858-.113l-.941.544a5.812,5.812,0,0,0-.974-.563V8.933a.711.711,0,0,0-.528-.687,7.392,7.392,0,0,0-3.788,0,.711.711,0,0,0-.528.687v1.088a5.812,5.812,0,0,0-.974.563l-.941-.544a.711.711,0,0,0-.858.113,7.331,7.331,0,0,0-1.9,3.281.712.712,0,0,0,.331.8l.943.544a5.855,5.855,0,0,0,0,1.125L16,16.45a.712.712,0,0,0-.331.8,7.331,7.331,0,0,0,1.9,3.281.711.711,0,0,0,.858.113l.941-.544a5.81,5.81,0,0,0,.974.563v1.088a.711.711,0,0,0,.528.687,7.391,7.391,0,0,0,3.788,0,.711.711,0,0,0,.528-.687V20.665a5.814,5.814,0,0,0,.974-.563l.941.544a.711.711,0,0,0,.858-.113,7.331,7.331,0,0,0,1.9-3.281.712.712,0,0,0-.331-.8l-.943-.544A5.855,5.855,0,0,0,28.577,14.781Zm-1.56,1.866,1.3.749a5.927,5.927,0,0,1-1,1.733l-1.3-.749a5.045,5.045,0,0,1-2.256,1.3v1.5a5.95,5.95,0,0,1-2,0v-1.5a5.046,5.046,0,0,1-2.256-1.3l-1.3.749a5.927,5.927,0,0,1-1-1.733l1.3-.749a5.1,5.1,0,0,1,0-2.607l-1.3-.749a5.928,5.928,0,0,1,1-1.733l1.3.749A5.045,5.045,0,0,1,21.756,11v-1.5a5.95,5.95,0,0,1,2,0V11a5.046,5.046,0,0,1,2.256,1.3l1.3-.749a5.927,5.927,0,0,1,1,1.733l-1.3.749a5.1,5.1,0,0,1,0,2.607ZM22.758,12.5A2.843,2.843,0,1,0,25.6,15.343,2.846,2.846,0,0,0,22.758,12.5Zm0,4.264a1.421,1.421,0,1,1,1.421-1.421A1.423,1.423,0,0,1,22.758,16.765Z" transform="translate(-9.273 -1.859)" fill="#42495b"/></g><g transform="translate(43.451 61.43)"><rect width="2.997" height="2.997" fill="#42495b"/></g><path d="M22.812,3.65H20.074V.684A.684.684,0,0,0,19.39,0h-.456a.684.684,0,0,0-.684.684V3.65H7.3V.684A.684.684,0,0,0,6.615,0H6.159a.684.684,0,0,0-.684.684V3.65H2.737A2.737,2.737,0,0,0,0,6.387V26.462A2.737,2.737,0,0,0,2.737,29.2H22.812a2.737,2.737,0,0,0,2.737-2.737V6.387A2.737,2.737,0,0,0,22.812,3.65ZM2.737,5.475H22.812a.914.914,0,0,1,.912.912V9.125H1.825V6.387A.914.914,0,0,1,2.737,5.475Zm20.074,21.9H2.737a.914.914,0,0,1-.912-.912V10.95h21.9V26.462A.914.914,0,0,1,22.812,27.374ZM19.021,16.257l-7.687,7.625a.685.685,0,0,1-.967,0L6.525,20.027a.685.685,0,0,1,0-.969l.485-.484a.685.685,0,0,1,.969,0l2.877,2.885L17.574,14.8a.685.685,0,0,1,.969,0l.482.486A.685.685,0,0,1,19.021,16.257Z" transform="translate(1 4.203)" fill="#42495b"/><path d="M6.159-.5h.456A1.186,1.186,0,0,1,7.8.684V3.15h9.95V.684A1.186,1.186,0,0,1,18.934-.5h.456A1.186,1.186,0,0,1,20.574.684V3.15h2.237a3.241,3.241,0,0,1,3.237,3.237V26.462A3.241,3.241,0,0,1,22.812,29.7H2.737A3.241,3.241,0,0,1-.5,26.462V6.387A3.241,3.241,0,0,1,2.737,3.15H4.975V.684A1.186,1.186,0,0,1,6.159-.5Zm12.59,4.65H6.8V.684A.185.185,0,0,0,6.615.5H6.159a.185.185,0,0,0-.184.184V4.15H2.737A2.24,2.24,0,0,0,.5,6.387V26.462A2.24,2.24,0,0,0,2.737,28.7H22.812a2.24,2.24,0,0,0,2.237-2.237V6.387A2.24,2.24,0,0,0,22.812,4.15H19.574V.684A.185.185,0,0,0,19.39.5h-.456a.185.185,0,0,0-.184.184ZM2.737,4.975H22.812a1.414,1.414,0,0,1,1.412,1.412V9.625H1.325V6.387A1.414,1.414,0,0,1,2.737,4.975Zm20.487,3.65V6.387a.413.413,0,0,0-.412-.412H2.737a.413.413,0,0,0-.412.412V8.625ZM1.325,10.45h22.9V26.462a1.414,1.414,0,0,1-1.412,1.412H2.737a1.414,1.414,0,0,1-1.412-1.412Zm21.9,1H2.325V26.462a.413.413,0,0,0,.412.412H22.812a.413.413,0,0,0,.412-.412ZM18.056,14.1a1.177,1.177,0,0,1,.841.35l.482.486a1.185,1.185,0,0,1-.007,1.676l-7.687,7.625a1.185,1.185,0,0,1-1.674,0L6.171,20.38a1.186,1.186,0,0,1,0-1.676l.485-.484a1.185,1.185,0,0,1,1.676,0l2.525,2.532,6.363-6.312A1.178,1.178,0,0,1,18.056,14.1Zm-7.2,9.481a.184.184,0,0,0,.13-.054L18.669,15.9a.185.185,0,0,0,0-.261l-.482-.486a.185.185,0,0,0-.262,0l-7.071,7.014L7.626,18.929a.185.185,0,0,0-.262,0l-.485.484a.185.185,0,0,0,0,.262l3.841,3.852A.184.184,0,0,0,10.852,23.581Z" transform="translate(1 4.203)" fill="#42495b"/></g><path d="M28.094,43.292H11.779a.906.906,0,0,0-.906.906V45.1a.906.906,0,0,0,.906.906H28.094A.906.906,0,0,0,29,45.1V44.2A.906.906,0,0,0,28.094,43.292Zm0,9.064H11.779a.906.906,0,0,0-.906.906v.906a.906.906,0,0,0,.906.906H28.094A.906.906,0,0,0,29,54.169v-.906A.906.906,0,0,0,28.094,52.356Zm0-18.127H11.779a.906.906,0,0,0-.906.906v.906a.906.906,0,0,0,.906.906H28.094A.906.906,0,0,0,29,36.041v-.906A.906.906,0,0,0,28.094,34.229ZM3.639,51a2.719,2.719,0,1,0,2.719,2.719A2.742,2.742,0,0,0,3.639,51ZM7.9,41.224a.685.685,0,0,0-.963,0L3.333,44.81,2.048,43.567a.68.68,0,0,0-.963,0L.2,44.45a.672.672,0,0,0,0,.957l2.689,2.673a.726.726,0,0,0,1,0l.889-.883,4.088-4.064a.672.672,0,0,0,.006-.952Zm0-9.064a.68.68,0,0,0-.963,0L3.334,35.738l-1.285-1.25a.684.684,0,0,0-.963,0L.2,35.376a.676.676,0,0,0,0,.96l2.695,2.678a.725.725,0,0,0,1,0l.883-.883L8.86,34.054a.683.683,0,0,0,.006-.963Z" transform="translate(985.076 1365.865)" fill="#42495b"/></g></svg>