<svg xmlns="http://www.w3.org/2000/svg" width="33.228" height="26.497" viewBox="0 0 33.228 26.497"><g transform="translate(-0.001 -0.985)"><path d="M427.512,21.028a.641.641,0,0,0-.633-.535h-.857a4.482,4.482,0,0,0-.826-1.423l.425-.743a.645.645,0,0,0-.145-.815,5.737,5.737,0,0,0-1.667-.966.642.642,0,0,0-.784.28l-.426.743a4.614,4.614,0,0,0-1.646,0l-.426-.742a.642.642,0,0,0-.784-.28,5.806,5.806,0,0,0-1.667.966.639.639,0,0,0-.145.815l.426.742a4.482,4.482,0,0,0-.826,1.423h-.857a.645.645,0,0,0-.633.54,5.85,5.85,0,0,0,0,1.926.641.641,0,0,0,.633.535h.857a4.482,4.482,0,0,0,.826,1.423l-.426.742a.645.645,0,0,0,.145.815,5.738,5.738,0,0,0,1.667.966.642.642,0,0,0,.784-.28l.426-.742a4.614,4.614,0,0,0,1.646,0l.426.742a.642.642,0,0,0,.784.28,5.807,5.807,0,0,0,1.667-.966.639.639,0,0,0,.145-.815l-.426-.742a4.483,4.483,0,0,0,.826-1.423h.857a.645.645,0,0,0,.633-.54A5.849,5.849,0,0,0,427.512,21.028Zm-7.1,2.331a1.94,1.94,0,0,1,2.742-2.742,1.94,1.94,0,0,1-2.742,2.742Zm7.1-17.851a.641.641,0,0,0-.633-.535h-.857a4.482,4.482,0,0,0-.826-1.423l.426-.742a.645.645,0,0,0-.145-.815,5.737,5.737,0,0,0-1.667-.966.642.642,0,0,0-.785.28l-.426.742a4.614,4.614,0,0,0-1.646,0l-.426-.742a.642.642,0,0,0-.784-.28,5.807,5.807,0,0,0-1.667.966.639.639,0,0,0-.145.815l.426.742a4.482,4.482,0,0,0-.826,1.423h-.857a.645.645,0,0,0-.633.54,5.85,5.85,0,0,0,0,1.926.641.641,0,0,0,.633.535h.857a4.482,4.482,0,0,0,.826,1.423l-.426.742a.645.645,0,0,0,.145.815,5.738,5.738,0,0,0,1.667.966.642.642,0,0,0,.784-.28l.426-.742a4.614,4.614,0,0,0,1.646,0l.426.742a.642.642,0,0,0,.784.28,5.807,5.807,0,0,0,1.667-.966.639.639,0,0,0,.145-.815L425.2,9.4a4.483,4.483,0,0,0,.826-1.423h.857a.645.645,0,0,0,.633-.54,5.849,5.849,0,0,0,0-1.926Zm-7.1,2.337A1.94,1.94,0,0,1,423.151,5.1a1.939,1.939,0,0,1-2.742,2.741Z" transform="translate(-394.363)" fill="#42495b" opacity="0.4"/><path d="M21.809,45.412,20.06,44.54a9.023,9.023,0,0,0,0-3.3l1.75-.872a1.241,1.241,0,0,0,.519-1.511,12.174,12.174,0,0,0-2.186-3.417,1.243,1.243,0,0,0-1.573-.275l-1.511.872a9.017,9.017,0,0,0-2.851-1.646V32.65a1.246,1.246,0,0,0-1.038-1.225,11.841,11.841,0,0,0-3.946.005,1.237,1.237,0,0,0-1.018,1.22V34.4a8.919,8.919,0,0,0-2.851,1.646l-1.511-.873a1.241,1.241,0,0,0-1.573.275A12.191,12.191,0,0,0,.079,38.865,1.238,1.238,0,0,0,.624,40.37l1.729.877a9,9,0,0,0,0,3.292l-1.729.872a1.253,1.253,0,0,0-.545,1.511A12.239,12.239,0,0,0,2.27,50.334a1.243,1.243,0,0,0,1.573.275l1.511-.867a9.017,9.017,0,0,0,2.851,1.646v1.745a1.246,1.246,0,0,0,1.038,1.225,11.676,11.676,0,0,0,3.941,0,1.243,1.243,0,0,0,1.023-1.225V51.388a8.919,8.919,0,0,0,2.851-1.646l1.511.872a1.241,1.241,0,0,0,1.573-.275,12.257,12.257,0,0,0,2.212-3.417A1.246,1.246,0,0,0,21.809,45.412Zm-7.856.223c-4,3.074-8.562-1.49-5.488-5.488,4-3.074,8.563,1.49,5.489,5.488Z" transform="translate(0 -28.704)" fill="#42495b"/></g></svg>