<svg xmlns="http://www.w3.org/2000/svg" width="29.471" height="29.472" viewBox="0 0 29.471 29.472"><g transform="translate(-7.972 -7.972)"><path d="M24.852,17.42l-.024-.01ZM20.894,17.3a5.733,5.733,0,0,1,3.629,0l6.654-6.654a14.734,14.734,0,0,0-16.932,0Zm4.08.173.031.013Zm.148.067.027.012Zm-6.557,9.088-.011-.012Zm-.327-.378.012.015Zm.1.119.021.024-.021-.026Zm.1.119.021.024Zm8.051-8.051.024.021Zm-8.444,7.555-.006-.009Zm7.526-8.216.02.011Zm.678.462.015.012Zm.378.327-.012-.011Zm-.235-.211-.025-.021Zm-.689-.5.028.017Zm.278.184.01.007Zm-.119-.08-.026-.017Zm-.577-.337-.006,0Zm-7.344,1.955.017-.025A.1.1,0,0,1,17.941,19.576Zm-.086.135.017-.027Zm-.078.134.011-.019ZM17.622,20.128Zm.617-.961.012-.015Zm.119-.144-.021.024a.085.085,0,0,1,.018-.023Zm-.317.409.006-.009Zm-.487.836-.012.026a.112.112,0,0,1,.01-.026Zm.32,5.466-.017-.027Zm-.254-.447v0Zm.168.305-.011-.019Zm.155.25.017.025a.18.18,0,0,0-.019-.027Zm-.4-.719.012.026A.246.246,0,0,0,17.539,25.123Zm-.119-4.557a.061.061,0,0,1-.01.023A.053.053,0,0,0,17.42,20.566Zm.065-.153-.013.03c.008-.01.008-.02.014-.03Zm-.013,4.562.013.03a.185.185,0,0,0-.012-.03Zm-.059-.146.01.023a.13.13,0,0,0-.011-.023Zm10.219-5,.011.019Zm-.675,6.684.021-.024Zm-.093.1-.011.012Zm-.011-7.825.011.012Zm.209,7.6.021-.024A.126.126,0,0,1,27.061,26.392Zm.119-7.226-.012-.015Zm0,7.082-.012.015Zm-.1-7.2-.021-.024.021.026Zm-.1-.119-.021-.024Zm.393.5.006.009Zm.006,6.561-.006.009Zm3.8-15.336.238.169ZM27.93,25l.013-.03A.252.252,0,0,1,27.93,25ZM28,24.85l.01-.023A.06.06,0,0,0,28,24.85Zm-.2.437v0Zm-.321.553-.017.025Zm.086-.135-.017.027Zm.08-.134-.011.019Zm.223-.423.012-.026Zm6.31-11.7q-.084-.1-.169-.206Zm-.209-.25-.178-.209C33.847,13.064,33.907,13.134,33.966,13.2Zm.408.505L34.21,13.5q.083.1.164.21Zm.2.264c-.054-.073-.109-.145-.163-.217.055.074.109.146.163.22Zm-7.1,5.6-.017-.025Zm3.966-8.734q.11.081.217.164Q31.553,10.924,31.442,10.842Zm.727.572q-.1-.086-.206-.169.105.084.208.169Zm-.251-.208q-.1-.083-.209-.165Zm.5.424q-.1-.091-.209-.178.1.087.207.178Zm-4.478,8.813-.013-.03A.252.252,0,0,1,27.943,20.442Zm-9.484-1.536-.021.024Zm9.417,1.388-.012-.026A.247.247,0,0,0,27.877,20.294ZM34.6,14.008c.059.078.113.156.169.234-.056-.078-.112-.156-.169-.234Zm-7.056,5.676.017.027Zm4.9-8.031a14.783,14.783,0,0,1,1.315,1.316A14.863,14.863,0,0,0,32.447,11.653ZM28,20.588,28,20.566A.073.073,0,0,0,28,20.588Zm6.764,10.585a14.734,14.734,0,0,0,0-16.932l-6.654,6.652a5.733,5.733,0,0,1,0,3.629ZM27.8,20.131ZM20.589,28l-.024-.01Zm-.146-.059-.031-.013Zm-.315-.148.006,0Zm6.5-.945-.012.011Zm-.764.609-.026.017Zm.119-.08.01-.007Zm.266-.2.015-.012Zm.238-.2.024-.021Zm-.1.083-.025.021Zm-6.1.813-.027-.012Zm-1.129-.7-.015-.012Zm-.238-.2-.024-.021ZM18.554,18.8l.011-.012Zm.238,8.05.012.011Zm.922.709-.028-.017Zm.134.08-.02-.011Zm4.677.475a5.733,5.733,0,0,1-3.629,0l-6.654,6.652a14.734,14.734,0,0,0,16.932,0Zm-4.974-.656.026.017Zm-.119-.08-.01-.007Zm12.782,6.585.209-.178Zm2.555-2.792c-.055.079-.112.157-.169.235C34.656,31.33,34.713,31.253,34.769,31.174Zm-2.8,3,.206-.169Zm-.257.2.209-.165-.209.162Zm2.867-2.936q-.081.11-.164.217Q34.493,31.553,34.574,31.442Zm-.608.772-.178.209C33.847,32.352,33.907,32.282,33.966,32.214Zm.206-.248L34,32.172l.172-.208Zm.039-.048.165-.209-.165.208ZM25.288,27.8l-.006,0Zm-.315.148L25,27.93Zm.731-.382.028-.017Zm-.583.315.027-.012Zm.449-.238.02-.011Zm8.193,4.806a14.789,14.789,0,0,1-1.316,1.316,14.79,14.79,0,0,0,1.316-1.314ZM31.409,34.6l-.238.169q.121-.081.238-.167ZM24.852,28l-.024.01Zm6.59,6.578.217-.164Q31.553,34.493,31.442,34.574ZM19.024,27.061l.025.021ZM11.653,12.969a14.783,14.783,0,0,1,1.315-1.316,14.863,14.863,0,0,0-1.315,1.316Zm1.8-1.723-.206.169q.1-.087.206-.171ZM18.8,18.553l-.012.011Zm.245-.218-.025.021Zm-5.038-7.518.238-.169Q14.124,10.732,14.007,10.817Zm5.144,7.435.015-.012Zm-5.443-7.211-.21.165Zm.046-.035q.108-.083.217-.164L13.755,11Zm5.172,7.432-.024.021Zm1.34-.886.027-.012Zm-.134.066-.006,0Zm.278-.132.031-.013Zm.153-.064.024-.01Zm-1.014.535.026-.017Zm.3-.184-.02.011Zm-.422.271.01-.007Zm.26-.173.028-.017ZM13.246,34l.206.169Zm-2-2.038.169.206Q11.328,32.068,11.245,31.964Zm.206.25.178.209C11.569,32.352,11.509,32.282,11.45,32.214Zm-.608-.772q.081.11.164.217Q10.924,31.553,10.842,31.442Zm.2.264q.081.107.165.212l-.165-.21ZM13,33.785q.1.091.209.178-.105-.086-.209-.176Zm.76.627q.108.083.217.164Zm.487.356L14,34.6ZM13.5,34.21l.209.165Zm-2.682-2.8c-.059-.078-.113-.156-.169-.235C10.707,31.253,10.76,31.33,10.817,31.408Zm.6-18.162q-.086.1-.169.206Q11.328,13.348,11.414,13.247Zm-.571.728c.053-.073.108-.146.163-.217C10.951,13.827,10.9,13.9,10.843,13.975Zm.363-.475q-.083.1-.164.209Zm.423-.505-.178.209c.058-.069.118-.138.178-.207ZM13,11.628q.1-.091.209-.178-.105.089-.209.18Zm-.027,22.134a14.789,14.789,0,0,1-1.316-1.316,14.789,14.789,0,0,0,1.316,1.318ZM17.3,24.522a5.733,5.733,0,0,1,0-3.629l-6.654-6.651a14.734,14.734,0,0,0,0,16.932ZM10.819,14.007l-.169.233q.081-.116.166-.232Z" transform="translate(0 0)" fill="#42495b" opacity="0.4"/><path d="M70.467,63.246l6.654-6.651a14.817,14.817,0,0,0-3.6-3.6l-6.651,6.654A5.719,5.719,0,0,1,70.467,63.246ZM59.654,66.875,53,73.529a14.817,14.817,0,0,0,3.594,3.594l6.652-6.656A5.719,5.719,0,0,1,59.654,66.875ZM53,56.6l6.654,6.654a5.719,5.719,0,0,1,3.594-3.594L56.595,53a14.817,14.817,0,0,0-3.6,3.6Zm13.875,13.87,6.654,6.654a14.817,14.817,0,0,0,3.594-3.594l-6.656-6.652A5.719,5.719,0,0,1,66.875,70.467Z" transform="translate(-42.353 -42.353)" fill="#42495b"/></g></svg>