<?xml version="1.0" standalone="no"?>
<!DOCTYPE svg PUBLIC "-//W3C//DTD SVG 20010904//EN"
 "http://www.w3.org/TR/2001/REC-SVG-20010904/DTD/svg10.dtd">
<svg version="1.0" xmlns="http://www.w3.org/2000/svg"
 width="656.000000pt" height="656.000000pt" viewBox="0 0 656.000000 656.000000"
 preserveAspectRatio="xMidYMid meet">
<metadata>
Created by potrace 1.14, written by Peter Selinger 2001-2017
</metadata>
<g transform="translate(0.000000,656.000000) scale(0.100000,-0.100000)"
fill="#000000" stroke="none">
<path d="M3180 6397 c-3 -3 -24 -7 -47 -11 -60 -8 -151 -35 -198 -59 -22 -11
-42 -19 -45 -18 -15 4 -175 -112 -232 -169 -116 -116 -190 -248 -232 -414 -21
-78 -23 -109 -20 -221 4 -114 9 -180 14 -180 1 0 3 -7 5 -15 11 -60 84 -230
97 -230 4 0 8 -6 8 -14 0 -46 182 -229 298 -299 79 -48 215 -101 282 -110 19
-3 35 -6 35 -7 0 -1 27 -3 60 -5 33 -2 65 -4 70 -5 6 -1 12 -2 15 -1 3 1 32 4
65 6 197 11 404 110 553 263 63 65 158 197 163 227 0 6 10 26 20 46 29 59 59
188 64 282 2 47 5 89 6 94 1 4 0 10 -1 13 -1 3 -3 21 -5 40 -11 174 -108 380
-245 520 -72 74 -157 140 -179 140 -6 0 -11 4 -11 8 0 12 -132 70 -214 93 -65
19 -313 38 -326 26z"/>
<path d="M2148 4165 c-2 -3 -31 -7 -64 -10 -32 -2 -72 -7 -89 -10 -54 -10
-170 -48 -176 -57 -3 -5 -10 -10 -15 -10 -43 -2 -181 -94 -265 -178 -137 -136
-234 -333 -253 -516 -2 -21 -5 -43 -6 -49 -1 -5 -2 -12 -1 -15 1 -3 3 -49 6
-102 2 -54 6 -102 10 -108 3 -6 9 -23 12 -38 9 -47 10 -52 50 -150 14 -35 32
-70 39 -77 8 -7 14 -16 14 -20 0 -33 161 -208 240 -262 150 -101 325 -161 468
-159 28 1 52 -3 52 -7 0 -5 4 -6 9 -3 5 4 31 8 58 10 213 19 395 106 548 260
60 61 169 211 164 226 -1 3 7 23 18 45 38 75 74 233 75 330 0 30 -15 181 -19
188 -2 4 -7 20 -10 35 -9 47 -10 52 -50 150 -14 35 -32 70 -39 77 -8 7 -14 18
-14 23 0 11 -66 98 -109 145 -41 45 -171 147 -187 147 -8 0 -14 4 -14 8 0 19
-194 94 -275 106 -16 2 -30 5 -30 6 0 1 -28 3 -62 5 -35 2 -67 6 -71 9 -5 3
-11 3 -14 1z"/>
<path d="M4445 4153 c-298 -41 -570 -245 -691 -519 -31 -70 -66 -207 -68 -261
0 -24 -5 -43 -9 -43 -5 0 -6 -4 -3 -9 3 -4 8 -48 11 -97 6 -86 12 -139 15
-139 1 0 3 -7 5 -15 11 -60 84 -230 97 -230 4 0 8 -6 8 -14 0 -22 74 -114 150
-186 140 -133 314 -213 515 -236 62 -7 55 -7 146 0 224 16 409 102 569 266
107 109 202 281 226 404 2 12 7 32 10 46 3 14 7 72 9 130 3 110 -4 174 -29
275 -12 44 -69 176 -82 190 -8 7 -14 18 -14 23 0 11 -66 98 -109 145 -41 45
-171 147 -187 147 -8 0 -14 4 -14 8 0 16 -188 91 -269 107 -36 7 -249 13 -286
8z"/>
<path d="M879 1925 c-3 -2 -34 -6 -69 -9 -359 -29 -659 -269 -770 -616 -28
-89 -32 -116 -35 -248 -2 -112 9 -194 39 -287 52 -163 189 -348 328 -443 112
-76 247 -132 365 -151 149 -24 377 5 487 61 22 12 42 20 44 18 2 -1 40 21 85
50 86 55 199 163 245 234 15 22 29 43 32 46 18 18 87 173 96 215 1 6 7 33 14
60 10 40 22 174 21 220 -13 427 -377 810 -798 839 -35 3 -67 7 -72 10 -4 3
-10 4 -12 1z"/>
<path d="M3248 1925 c-2 -3 -25 -7 -49 -9 -101 -11 -200 -36 -264 -69 -22 -11
-41 -19 -43 -17 -2 1 -40 -21 -85 -50 -230 -148 -382 -398 -402 -660 -2 -25
-5 -47 -6 -50 -1 -3 -1 -8 0 -12 0 -3 3 -42 5 -85 19 -309 217 -594 507 -731
37 -18 73 -32 81 -32 8 0 18 -3 22 -7 3 -4 12 -8 19 -9 46 -8 68 -14 79 -20 6
-4 69 -9 139 -10 264 -5 480 81 657 264 61 62 163 205 160 222 -1 3 8 23 19
45 31 61 60 169 68 255 2 19 4 37 5 40 2 3 2 8 2 11 -1 3 -4 46 -7 95 -9 119
-10 127 -19 142 -4 6 -5 12 -2 12 7 0 -25 92 -54 155 -38 85 -109 186 -179
255 -66 66 -150 130 -170 130 -6 0 -11 4 -11 8 0 13 -135 71 -216 93 -40 11
-109 22 -153 24 -45 2 -85 6 -90 9 -4 3 -10 3 -13 1z"/>
<path d="M5679 1925 c-3 -2 -34 -6 -69 -9 -103 -9 -205 -33 -270 -66 -19 -10
-39 -18 -45 -19 -27 -2 -168 -104 -231 -166 -153 -152 -233 -319 -260 -545 -7
-53 -7 -46 0 -140 24 -356 259 -660 598 -774 107 -36 174 -45 308 -41 122 3
237 28 314 67 22 12 43 21 46 20 3 -1 37 19 75 43 91 56 173 131 230 208 25
34 48 67 53 72 25 35 89 178 98 220 1 6 8 33 14 60 7 28 14 102 16 165 2 103
-2 142 -22 230 -9 39 -10 44 -18 65 -52 140 -111 237 -199 328 -64 67 -162
147 -179 147 -5 0 -16 6 -23 14 -11 11 -80 42 -160 72 -24 9 -23 8 -60 17 -62
15 -82 18 -137 22 -32 2 -61 6 -66 9 -5 3 -11 4 -13 1z"/>
</g>
</svg>
